<svg xmlns="http://www.w3.org/2000/svg" height="24px" viewBox="0 -960 960 960" width="24px" fill="#e3e3e3"><path d="M192.17-192.17q-16.78-16.78-16.78-41.06t16.78-41.06q16.78-16.79 41.06-16.79t41.06 16.79q16.79 16.78 16.79 41.06t-16.79 41.06q-16.78 16.78-41.06 16.78t-41.06-16.78Zm246.77 0q-16.79-16.78-16.79-41.06t16.79-41.06q16.78-16.79 41.06-16.79t41.06 16.79q16.79 16.78 16.79 41.06t-16.79 41.06q-16.78 16.78-41.06 16.78t-41.06-16.78Zm246.77 0q-16.79-16.78-16.79-41.06t16.79-41.06q16.78-16.79 41.06-16.79t41.06 16.79q16.78 16.78 16.78 41.06t-16.78 41.06q-16.78 16.78-41.06 16.78t-41.06-16.78ZM192.17-438.94q-16.78-16.78-16.78-41.06t16.78-41.06q16.78-16.79 41.06-16.79t41.06 16.79q16.79 16.78 16.79 41.06t-16.79 41.06q-16.78 16.79-41.06 16.79t-41.06-16.79Zm246.77 0q-16.79-16.78-16.79-41.06t16.79-41.06q16.78-16.79 41.06-16.79t41.06 16.79q16.79 16.78 16.79 41.06t-16.79 41.06q-16.78 16.79-41.06 16.79t-41.06-16.79Zm246.77 0q-16.79-16.78-16.79-41.06t16.79-41.06q16.78-16.79 41.06-16.79t41.06 16.79q16.78 16.78 16.78 41.06t-16.78 41.06q-16.78 16.79-41.06 16.79t-41.06-16.79ZM192.17-685.71q-16.78-16.78-16.78-41.06t16.78-41.06q16.78-16.78 41.06-16.78t41.06 16.78q16.79 16.78 16.79 41.06t-16.79 41.06q-16.78 16.79-41.06 16.79t-41.06-16.79Zm246.77 0q-16.79-16.78-16.79-41.06t16.79-41.06q16.78-16.78 41.06-16.78t41.06 16.78q16.79 16.78 16.79 41.06t-16.79 41.06q-16.78 16.79-41.06 16.79t-41.06-16.79Zm246.77 0q-16.79-16.78-16.79-41.06t16.79-41.06q16.78-16.78 41.06-16.78t41.06 16.78q16.78 16.78 16.78 41.06t-16.78 41.06q-16.78 16.79-41.06 16.79t-41.06-16.79Z"/></svg>