<svg xmlns="http://www.w3.org/2000/svg" height="24px" viewBox="0 -960 960 960" width="24px" fill="#e3e3e3"><path d="M679.2-88q-46.58 0-79.28-32.78-32.69-32.78-32.69-79.6 0-10 6.31-34.31L281.62-404.62q-15.13 16.88-36.83 26.44-21.69 9.56-45.17 9.56-46.51 0-79.07-32.81Q88-434.24 88-480.24q0-45.99 32.55-79.07 32.56-33.07 79.07-33.07 23.48 0 45.17 9.56 21.7 9.56 36.83 26.44l291.92-170.16q-2.77-8.77-4.54-17.42-1.77-8.66-1.77-16.66 0-46.82 32.82-79.6Q632.86-873 679.74-873q46.88 0 79.07 32.81Q791-807.37 791-760.49q0 46.87-32.49 79.07-32.48 32.19-78.89 32.19-23.7 0-45-9.39Q613.31-668 598.38-685L305.46-515.08q2.77 8.77 4.54 17.93 1.77 9.15 1.77 17.15 0 8-1.27 16.3-1.27 8.31-4.04 16.78L599.38-276q14.93-17 35.74-26.38 20.8-9.39 44.5-9.39 46.41 0 78.89 32.61Q791-246.55 791-199.97q0 46.59-32.61 79.28T679.2-88Zm-.41-66q19.36 0 32.79-13.92Q725-181.85 725-200.91q0-19.07-13.34-31.96-13.33-12.9-33.04-12.9-18.54 0-31.97 12.9-13.42 12.89-13.42 31.96 0 19.06 13.1 32.99Q659.43-154 678.79-154Zm-479.3-280.62q19.99 0 33.13-13.49 13.15-13.49 13.15-32.77 0-19.27-13.32-32.39-13.32-13.11-33.01-13.11-19.04 0-32.24 13.29Q154-499.8 154-480.82q0 18.97 13.08 32.59 13.08 13.61 32.41 13.61Zm511.89-293.91Q725-741.83 725-761.49t-13.3-32.59Q698.4-807 678.74-807t-32.59 13.1q-12.92 13.1-12.92 32.46t13.29 32.79q13.29 13.42 32.27 13.42 18.98 0 32.59-13.3Zm-31.76 528.15ZM200.38-481Zm479.24-280.62Z"/></svg>